<svg width="48" height="48" viewBox="0 0 48 48" fill="none" xmlns="http://www.w3.org/2000/svg">
<path d="M5 20C5 19.4695 5.21071 18.9608 5.58579 18.5857C5.96086 18.2107 6.46957 18 7 18H43C43.5304 18 44.0391 18.2107 44.4142 18.5857C44.7893 18.9608 45 19.4695 45 20C45 20.5304 44.7893 21.0391 44.4142 21.4142C44.0391 21.7892 43.5304 22 43 22H7C6.46957 22 5.96086 21.7892 5.58579 21.4142C5.21071 21.0391 5 20.5304 5 20ZM5 28C5 27.4695 5.21071 26.9608 5.58579 26.5857C5.96086 26.2107 6.46957 26 7 26H43C43.5304 26 44.0391 26.2107 44.4142 26.5857C44.7893 26.9608 45 27.4695 45 28C45 28.5304 44.7893 29.0391 44.4142 29.4142C44.0391 29.7892 43.5304 30 43 30H7C6.46957 30 5.96086 29.7892 5.58579 29.4142C5.21071 29.0391 5 28.5304 5 28ZM7 34C6.46957 34 5.96086 34.2107 5.58579 34.5857C5.21071 34.9608 5 35.4695 5 35.9999C5 36.5304 5.21071 37.0391 5.58579 37.4142C5.96086 37.7892 6.46957 38 7 38H31C31.5304 38 32.0391 37.7892 32.4142 37.4142C32.7893 37.0391 33 36.5304 33 35.9999C33 35.4695 32.7893 34.9608 32.4142 34.5857C32.0391 34.2107 31.5304 34 31 34H7Z" fill="#102B3E"/>
<path d="M5 12C5 11.4696 5.21071 10.9609 5.58579 10.5858C5.96086 10.2107 6.46957 10 7 10H43C43.5304 10 44.0391 10.2107 44.4142 10.5858C44.7893 10.9609 45 11.4696 45 12C45 12.5305 44.7893 13.0392 44.4142 13.4142C44.0391 13.7893 43.5304 14 43 14H7C6.46957 14 5.96086 13.7893 5.58579 13.4142C5.21071 13.0392 5 12.5305 5 12ZM5 20C5 19.4695 5.21071 18.9608 5.58579 18.5857C5.96086 18.2107 6.46957 18 7 18H43C43.5304 18 44.0391 18.2107 44.4142 18.5857C44.7893 18.9608 45 19.4695 45 20C45 20.5304 44.7893 21.0391 44.4142 21.4142C44.0391 21.7892 43.5304 22 43 22H7C6.46957 22 5.96086 21.7892 5.58579 21.4142C5.21071 21.0391 5 20.5304 5 20ZM7 26C6.46957 26 5.96086 26.2107 5.58579 26.5857C5.21071 26.9608 5 27.4695 5 28C5 28.5304 5.21071 29.0391 5.58579 29.4142C5.96086 29.7892 6.46957 30 7 30L31 30C31.5304 30 32.0391 29.7893 32.4142 29.4142C32.7893 29.0392 33 28.5305 33 28C33 27.4696 32.7893 26.9609 32.4142 26.5858C32.0391 26.2107 31.5304 26 31 26L7 26Z" fill="#102B3E"/>
</svg>
